#!OML:ASF F:\VICON\USERDATA\INSTALL\SteveWalk\SteveWalk.ASF
:FULLY-SPECIFIED
:DEGREES
106
root -0.26442 15.8108 -22.2126 18.5924 7.11214 1.72905
lowerback -17.421 -3.07383 0.195311
upperback -5.35455 -4.15139 1.65105
thorax 4.12082 -2.03995 0.77866
lowerneck -3.02386 -1.57489 0.0874907
upperneck 5.89044 -2.00465 -1.78218
head 2.35224 -1.04756 -0.638895
rclavicle 5.99072e-014 3.97569e-015
rhumerus -103.545 -33.65 21.6335
rradius 10.7284
rwrist 73.7336
rhand -14.1343 -35.6587
rfingers 7.12502
rthumb 11.9996 -65.2948
lclavicle 5.99072e-014 3.97569e-015
lhumerus -18.7232 1.6488 79.8109
lradius 56.6203
lwrist 11.3528
lhand -18.1214 -18.0587
lfingers 7.12502
lthumb 8.15316 11.764
rfemur -55.3509 -1.97559 22.0738
rtibia 36.6023
rfoot -4.41565 0.108064
rtoes -21.9623
lfemur 1.74128 0.410997 -20.7866
ltibia 28.5257
lfoot -0.943867 -17.6708
ltoes -14.2488
107
root -0.255814 15.8192 -21.9714 18.5378 6.94352 1.53196
lowerback -17.1817 -3.00006 0.630497
upperback -5.42472 -4.12963 1.7447
thorax 3.89619 -2.03088 0.652213
lowerneck -3.14422 -1.48183 0.18794
upperneck 5.86125 -1.87216 -2.005
head 2.36359 -0.986172 -0.724281
rclavicle 4.50084e-014 1.74931e-014
rhumerus -102.631 -34.5622 19.9976
rradius 10.7726
rwrist 72.5159
rhand -13.8409 -35.5672
rfingers 7.12502
rthumb 12.2825 -65.1865
lclavicle 4.50084e-014 1.74931e-014
lhumerus -20.0699 2.08677 79.8286
lradius 57.1194
lwrist 12.0359
lhand -18.1882 -17.9242
lfingers 7.12502
lthumb 8.08867 11.901
rfemur -55.184 -1.4193 22.0798
rtibia 37.993
rfoot -4.76207 0.439003
rtoes -19.8717
lfemur 0.249129 0.402816 -20.533
ltibia 31.7766
lfoot 3.63362 -17.7472
ltoes -11.148
108
root -0.253039 15.8475 -21.7379 18.4668 6.94082 1.38232
lowerback -16.8214 -2.99773 0.969844
upperback -5.46707 -4.18153 1.8351
thorax 3.64409 -2.05935 0.566807
lowerneck -3.37047 -1.45437 0.173986
upperneck 5.80288 -1.82886 -2.10043
head 2.38577 -0.968447 -0.753176
rclavicle 2.84417e-014 8.74653e-015
rhumerus -101.335 -35.6471 17.6646
rradius 10.7928
rwrist 70.7551
rhand -13.6185 -35.2001
rfingers 7.12502
rthumb 12.497 -64.8064
lclavicle 2.84417e-014 8.74653e-015
lhumerus -21.1916 2.48831 79.8575
lradius 57.2957
lwrist 12.7368
lhand -18.1273 -17.7915
lfingers 7.12502
lthumb 8.14749 12.0314
rfemur -54.8023 -1.0719 22.1691
rtibia 39.105
rfoot -5.1688 0.90166
rtoes -15.632
lfemur -1.41504 0.223967 -20.23
ltibia 35.1058
lfoot 7.9515 -17.6913
ltoes -8.97367
109
root -0.245608 15.8756 -21.5035 18.3786 6.88733 1.21434
lowerback -16.6186 -2.95478 1.30015
upperback -5.46273 -4.17939 1.92451
thorax 3.52455 -2.06016 0.48658
lowerneck -3.48349 -1.43876 0.279119
upperneck 5.71392 -1.80565 -2.25716
head 2.37554 -0.959254 -0.820916
rclavicle 2.23198e-014 7.95139e-016
rhumerus -100.116 -36.6993 15.5579
rradius 10.8392
rwrist 68.9222
rhand -13.6756 -34.8625
rfingers 7.12502
rthumb 12.4418 -64.4722
lclavicle 2.23198e-014 7.95139e-016
lhumerus -22.1972 2.78714 79.9476
lradius 57.1892
lwrist 13.2953
lhand -17.9589 -17.5498
lfingers 7.12502
lthumb 8.30998 12.2667
rfemur -54.267 -1.09458 22.5513
rtibia 39.94
rfoot -5.88255 1.28952
rtoes -11.7529
lfemur -3.05696 -0.05731 -19.997
ltibia 38.5083
lfoot 10.8533 -17.884
ltoes -10.0029
110
root -0.235049 15.895 -21.2665 18.2668 6.99438 0.917827
lowerback -16.5687 -2.90632 1.78262
upperback -5.41211 -4.1984 2.03966
thorax 3.5257 -2.07006 0.334697
lowerneck -3.56176 -1.3858 0.478172
upperneck 5.65345 -1.73561 -2.45312
head 2.36845 -0.925884 -0.915935
rclavicle 5.35072e-014 2.94201e-014
rhumerus -98.4766 -37.7469 12.7841
rradius 10.9085
rwrist 66.2139
rhand -14.1064 -35.3197
rfingers 7.12502
rthumb 12.0265 -64.9541
lclavicle 5.35072e-014 2.94201e-014
lhumerus -23.1384 2.91401 80.0994
lradius 56.8831
lwrist 13.7093
lhand -17.7699 -17.3318
lfingers 7.12502
lthumb 8.49243 12.4775
rfemur -53.5776 -1.42682 23.2367
rtibia 40.5249
rfoot -6.7689 1.45922
rtoes -10.0843
lfemur -4.69073 -0.460538 -19.6141
ltibia 41.9637
lfoot 12.7162 -18.2266
ltoes -13.9226
111
root -0.228951 15.9272 -21.0355 18.1856 7.27166 0.447604
lowerback -16.4791 -2.81169 2.40918
upperback -5.41327 -4.17552 2.15687
thorax 3.44039 -2.06056 0.116498
lowerneck -3.53918 -1.32739 0.566871
upperneck 5.54354 -1.66488 -2.44785
head 2.32856 -0.88787 -0.925796
rclavicle -6.19742e-014 -1.66979e-014
rhumerus -95.6636 -38.7138 7.82112
rradius 11.0019
rwrist 62.2027
rhand -14.6621 -35.9769
rfingers 7.12502
rthumb 11.4907 -65.642
lclavicle -6.19742e-014 -1.66979e-014
lhumerus -23.9529 2.74101 80.3561
lradius 56.3356
lwrist 14.0276
lhand -17.4835 -17.0251
lfingers 7.12502
lthumb 8.76881 12.7728
rfemur -52.7864 -1.7861 24.0946
rtibia 40.9239
rfoot -7.51582 1.70737
rtoes -8.17098
lfemur -6.50714 -0.910668 -18.9517
ltibia 45.4092
lfoot 15.3195 -17.9921
ltoes -16.0496
112
root -0.225726 15.9638 -20.8122 18.1196 7.36228 -0.0884438
lowerback -16.3307 -2.61222 2.97742
upperback -5.41584 -4.00204 2.28287
thorax 3.32997 -1.9772 -0.0289017
lowerneck -3.66202 -1.36424 0.673426
upperneck 5.56529 -1.71574 -2.5204
head 2.3564 -0.913817 -0.970768
rclavicle 4.15429e-014 -2.06736e-014
rhumerus -93.2494 -39.5984 3.5727
rradius 11.0798
rwrist 59.1171
rhand -14.9137 -35.3252
rfingers 7.12502
rthumb 11.248 -65.0037
lclavicle 4.15429e-014 -2.06736e-014
lhumerus -24.59 2.31661 80.7757
lradius 55.5896
lwrist 14.1417
lhand -17.4602 -16.5532
lfingers 7.12502
lthumb 8.79127 13.2437
rfemur -51.9505 -1.95115 24.9569
rtibia 41.1746
rfoot -8.30191 1.90984
rtoes -7.48223
lfemur -8.44791 -1.06916 -18.288
ltibia 48.8541
lfoot 18.1671 -17.0689
ltoes -17.7475
113
root -0.220937 15.9914 -20.5881 18.0519 7.41974 -0.372204
lowerback -16.0504 -2.46463 3.18601
upperback -5.49452 -3.83052 2.4311
thorax 3.09711 -1.8965 0.0571818
lowerneck -3.97126 -1.45967 0.702118
upperneck 5.83317 -1.83282 -2.6448
head 2.49945 -0.978399 -1.027
rclavicle -2.32112e-014 4.77083e-015
rhumerus -89.4839 -40.1394 -2.38367
rradius 11.2854
rwrist 54.3754
rhand -14.6843 -34.7007
rfingers 7.12502
rthumb 11.4692 -64.367
lclavicle -2.32112e-014 4.77083e-015
lhumerus -25.2281 1.88606 81.3964
lradius 54.5564
lwrist 14.0175
lhand -17.9198 -16.2096
lfingers 7.12502
lthumb 8.34771 13.6054
rfemur -51.0943 -2.27562 25.637
rtibia 41.3261
rfoot -9.34788 1.56649
rtoes -12.4814
lfemur -10.3194 -1.1681 -17.9288
ltibia 52.2547
lfoot 19.6281 -16.052
ltoes -21.9214
114
root -0.217894 16.0172 -20.373 18.123 7.37188 -0.586601
lowerback -15.8125 -2.26197 3.25442
upperback -5.63232 -3.56209 2.5666
thorax 2.83435 -1.76786 0.223343
lowerneck -4.25723 -1.54354 0.606538
upperneck 6.08787 -1.93714 -2.59343
head 2.63679 -1.03385 -1.00495
rclavicle -1.50331e-014 -2.06736e-014
rhumerus -85.6715 -40.4619 -8.33007
rradius 11.5019
rwrist 49.8228
rhand -14.5591 -35.327
rfingers 7.12502
rthumb 11.59 -64.9865
lclavicle -1.50331e-014 -2.06736e-014
lhumerus -25.7424 1.5836 82.0983
lradius 53.1605
lwrist 13.5189
lhand -18.014 -16.093
lfingers 7.12502
lthumb 8.25687 13.7256
rfemur -50.4183 -2.45497 26.1587
rtibia 41.484
rfoot -10.3985 1.11403
rtoes -16.5398
lfemur -12.4025 -1.05904 -17.6967
ltibia 55.5068
lfoot 21.0246 -15.2032
ltoes -21.7932
115
root -0.216784 16.0447 -20.1673 18.2148 7.30981 -0.959877
lowerback -15.7766 -2.02272 3.49564
upperback -5.61302 -3.28703 2.69616
thorax 2.83348 -1.63154 0.273261
lowerneck -4.53193 -1.61296 0.632825
upperneck 6.12969 -2.03117 -2.58886
head 2.70025 -1.08159 -1.01602
rclavicle 7.64389e-015 -1.27222e-014
rhumerus -84.2004 -41.5013 -10.3941
rradius 11.4742
rwrist 48.6831
rhand -14.5805 -35.4628
rfingers 7.12502
rthumb 11.5693 -65.1234
lclavicle 7.64389e-015 -1.27222e-014
lhumerus -26.0267 1.39154 82.6843
lradius 51.6396
lwrist 12.6924
lhand -17.4142 -16.3415
lfingers 7.12502
lthumb 8.83564 13.4536
rfemur -49.7024 -2.35328 26.6357
rtibia 41.619
rfoot -11.3857 1.03486
rtoes -15.0672
lfemur -14.5891 -0.69819 -17.2947
ltibia 58.5964
lfoot 24.9759 -13.5248
ltoes -6.60413
116
root -0.215331 16.0646 -19.9588 18.2304 7.5495 -1.16448
lowerback -15.7659 -1.94824 3.61962
upperback -5.52905 -3.21332 2.77366
thorax 2.91513 -1.59285 0.296306
lowerneck -4.84519 -1.65102 0.84419
upperneck 6.12885 -2.08892 -2.72144
head 2.75496 -1.11154 -1.10269
rclavicle 1.68967e-015 3.97569e-015
rhumerus -81.7331 -42.4402 -13.8119
rradius 11.5873
rwrist 46.7273
rhand -14.2022 -35.0659
rfingers 7.12502
rthumb 11.9341 -64.7058
lclavicle 1.68967e-015 3.97569e-015
lhumerus -26.254 1.05035 83.1889
lradius 50.0319
lwrist 11.8806
lhand -17.2405 -16.5609
lfingers 7.12502
lthumb 9.00323 13.227
rfemur -48.8761 -2.57188 27.0103
rtibia 41.7266
rfoot -12.3017 0.975677
rtoes -12.7524
lfemur -16.2956 -0.668015 -16.9241
ltibia 61.3683
lfoot 18.1919 -13.0068
ltoes -20.706
117
root -0.216021 16.1004 -19.7458 18.2925 7.72867 -1.27304
lowerback -15.8328 -1.88013 3.59281
upperback -5.47806 -3.12696 2.82284
thorax 3.01049 -1.5472 0.374397
lowerneck -5.14741 -1.6831 1.01947
upperneck 6.21711 -2.13888 -2.8035
head 2.83863 -1.13717 -1.16811
rclavicle 9.03849e-015 -2.78299e-014
rhumerus -78.0712 -42.8266 -18.979
rradius 11.8483
rwrist 43.7309
rhand -13.7917 -34.522
rfingers 7.12502
rthumb 12.3299 -64.1384
lclavicle 9.03849e-015 -2.78299e-014
lhumerus -26.5358 0.550094 83.7547
lradius 48.3655
lwrist 11.0969
lhand -17.5314 -16.3161
lfingers 7.12502
lthumb 8.72259 13.4837
rfemur -48.0205 -2.88267 27.3388
rtibia 41.6852
rfoot -12.8775 0.91279
rtoes -10.3241
lfemur -18.2691 -0.537297 -16.7051
ltibia 63.9467
lfoot 13.2716 -11.3088
ltoes -28.338
118
root -0.215909 16.1367 -19.5377 18.3165 7.59976 -1.38348
lowerback -15.7722 -1.7433 3.51866
upperback -5.52256 -2.93247 2.88167
thorax 2.94146 -1.45122 0.515198
lowerneck -5.17964 -1.73175 1.0186
upperneck 6.35331 -2.20354 -2.77518
head 2.88967 -1.16904 -1.16393
rclavicle 2.47238e-015 -1.82882e-014
rhumerus -73.7503 -42.4316 -25.0167
rradius 12.1318
rwrist 40.1561
rhand -13.777 -34.0543
rfingers 7.12502
rthumb 12.3441 -63.6699
lclavicle 2.47238e-015 -1.82882e-014
lhumerus -27.1024 0.145409 84.37
lradius 46.7357
lwrist 10.0414
lhand -17.7471 -15.9728
lfingers 7.12502
lthumb 8.51437 13.8355
rfemur -47.1435 -3.05158 27.63
rtibia 41.613
rfoot -13.4794 0.728975
rtoes -10.0344
lfemur -20.0998 -0.0822784 -16.647
ltibia 66.1743
lfoot 9.80236 -10.0142
ltoes -32.5874
119
root -0.213714 16.1776 -19.329 18.423 7.2213 -1.32431
lowerback -15.4144 -1.59313 3.20951
upperback -5.80178 -2.65958 2.93142
thorax 2.47726 -1.32153 0.805196
lowerneck -5.27427 -1.76419 0.854936
upperneck 6.8767 -2.23263 -2.66475
head 3.08769 -1.18624 -1.11027
rclavicle -2.80504e-014 3.57812e-014
rhumerus -68.6697 -40.9458 -32.198
rradius 12.6203
rwrist 35.5522
rhand -13.7866 -34.4763
rfingers 7.12502
rthumb 12.3348 -64.0924
lclavicle -2.80504e-014 3.57812e-014
lhumerus -28.109 -0.30491 85.0479
lradius 45.2929
lwrist 8.84635
lhand -18.1344 -15.537
lfingers 7.12502
lthumb 8.14062 14.2862
rfemur -46.2137 -3.12501 27.6904
rtibia 41.3249
rfoot -14.6523 0.584887
rtoes -12.6881
lfemur -22.3726 0.378101 -16.8941
ltibia 68.3614
lfoot 8.22231 -8.02113
ltoes -30.4182
